<svg width="52" height="41" viewBox="0 0 52 41" fill="none" xmlns="http://www.w3.org/2000/svg">
<path d="M2.28032 3.06675L21.5626 22.3574C24.0152 24.811 27.9916 24.811 30.4441 22.3574L49.7264 3.06675C50.5177 2.27515 49.9573 0.92163 48.8382 0.921631L3.16847 0.921631C2.04946 0.92163 1.48906 2.27515 2.28032 3.06675Z" fill="white"/>
<path fill-rule="evenodd" clip-rule="evenodd" d="M38.5946 35.8955L27.3723 25.9774C26.7121 25.3939 25.7222 25.3892 25.0565 25.9664L13.6046 35.8955L38.5946 35.8955ZM30.6986 22.2104C28.1521 19.9598 24.3338 19.9417 21.766 22.168L2.68058 38.7156C1.80191 39.4774 2.34046 40.9218 3.50319 40.9218L48.5515 40.9218C49.7084 40.9218 50.2501 39.4897 49.3831 38.7235L30.6986 22.2104Z" fill="white"/>
<mask id="path-3-inside-1" fill="white">
<rect y="0.938721" width="52" height="39.9594" rx="3.29613"/>
</mask>
<rect y="0.938721" width="52" height="39.9594" rx="3.29613" stroke="white" stroke-width="10.1419" mask="url(#path-3-inside-1)"/>
</svg>
