<svg width="153" height="25" viewBox="0 0 153 25" fill="none" xmlns="http://www.w3.org/2000/svg">
<g>
<path d="M12.2885 24.7825C16.9096 24.7825 19.648 23.1394 22.1125 20.5037L18.758 17.115C16.8754 18.8265 15.1981 19.9218 12.4597 19.9218C8.35211 19.9218 5.51102 16.4988 5.51102 12.3912V12.3228C5.51102 8.21519 8.42057 4.86065 12.4597 4.86065C14.8558 4.86065 16.7384 5.88755 18.5869 7.56482L21.9414 3.69683C19.7164 1.50612 17.0123 0 12.4939 0C5.13449 0 0 5.57948 0 12.3912V12.4597C0 19.3399 5.23718 24.7825 12.2885 24.7825Z" fill="#0D0D0D"/>
<path d="M37.3021 24.7825C44.6957 24.7825 50.0698 19.203 50.0698 12.3912V12.3228C50.0698 5.51102 44.7642 0 37.3705 0C29.9769 0 24.6028 5.57948 24.6028 12.3912V12.4597C24.6028 19.2715 29.9084 24.7825 37.3021 24.7825ZM37.3705 19.9218C33.126 19.9218 30.1138 16.4988 30.1138 12.3912V12.3228C30.1138 8.21519 33.0576 4.86065 37.3021 4.86065C41.5466 4.86065 44.5588 8.28364 44.5588 12.3912V12.4597C44.5588 16.5673 41.6151 19.9218 37.3705 19.9218Z" fill="#0D0D0D"/>
<path d="M54.746 24.3717H60.0174V14.7531H69.7387V24.3717H75.0101V0.410758H69.7387V9.89245H60.0174V0.410758H54.746V24.3717Z" fill="#0D0D0D"/>
<path d="M109.835 24.3717H115.106V16.7042H119.248L124.383 24.3717H130.544L124.691 15.8142C127.737 14.6846 129.825 12.2543 129.825 8.38633V8.31787C129.825 6.0587 129.106 4.17605 127.771 2.84108C126.197 1.26651 123.835 0.410758 120.788 0.410758H109.835V24.3717ZM115.106 12.0489V5.16872H120.343C122.911 5.16872 124.485 6.33254 124.485 8.59171V8.66017C124.485 10.6797 123.013 12.0489 120.446 12.0489H115.106Z" fill="#0D0D0D"/>
<path d="M140.151 24.3717H145.422V5.27141H152.713V0.410758H132.86V5.27141H140.151V24.3717Z" fill="#0D0D0D"/>
<path fill-rule="evenodd" clip-rule="evenodd" d="M103.192 6.28141L86.7907 22.6823C85.5414 23.9316 83.516 23.9316 82.2668 22.6823C81.0175 21.4331 81.0175 19.4077 82.2668 18.1584L98.6677 1.75749C99.9169 0.508245 101.942 0.508245 103.192 1.75749C104.441 3.00674 104.441 5.03217 103.192 6.28141Z" fill="#0D0D0D"/>
<path fill-rule="evenodd" clip-rule="evenodd" d="M103.823 17.2177L97.5971 23.4433C96.2793 24.761 94.1428 24.761 92.825 23.4433C91.5072 22.1255 91.5072 19.9889 92.825 18.6712L99.0506 12.4456C100.368 11.1278 102.505 11.1278 103.823 12.4456C105.14 13.7634 105.14 15.8999 103.823 17.2177Z" fill="#0D0D0D"/>
<path fill-rule="evenodd" clip-rule="evenodd" d="M81.6522 8.39938L88.3066 1.74497C89.506 0.54562 91.4505 0.545621 92.6499 1.74497C93.8492 2.94433 93.8492 4.88886 92.6499 6.08822L85.9954 12.7426C84.7961 13.942 82.8516 13.942 81.6522 12.7426C80.4528 11.5433 80.4528 9.59873 81.6522 8.39938Z" fill="#0D0D0D"/>
</g>
</svg>